<svg xmlns="http://www.w3.org/2000/svg" width="60" viewBox="0 0 60 60" height="60" version="1.0"><path fill="#010101" d="M 58.21875 0 L 0 0 L 0 60 L 60 60 L 60 0 L 58.21875 0 M 58.21875 58.21875 L 1.800781 58.21875 L 1.800781 1.800781 L 58.21875 1.800781 L 58.21875 58.21875"/><g><g><g><path d="M 24.9375 -16.21875 C 27 -15.769531 28.59375 -14.878906 29.71875 -13.546875 C 30.84375 -12.210938 31.40625 -10.5 31.40625 -8.40625 C 31.40625 -5.707031 30.40625 -3.628906 28.40625 -2.171875 C 26.414062 -0.722656 23.476562 0 19.59375 0 L 5.125 0 L 5.125 -31.453125 L 18.6875 -31.453125 C 22.1875 -31.453125 24.898438 -30.742188 26.828125 -29.328125 C 28.765625 -27.921875 29.734375 -25.929688 29.734375 -23.359375 C 29.734375 -21.617188 29.304688 -20.140625 28.453125 -18.921875 C 27.597656 -17.710938 26.425781 -16.8125 24.9375 -16.21875 Z M 8.453125 -28.703125 L 8.453125 -17.296875 L 18.46875 -17.296875 C 21.007812 -17.296875 22.96875 -17.78125 24.34375 -18.75 C 25.726562 -19.726562 26.421875 -21.144531 26.421875 -23 C 26.421875 -24.851562 25.726562 -26.265625 24.34375 -27.234375 C 22.96875 -28.210938 21.007812 -28.703125 18.46875 -28.703125 Z M 19.546875 -2.734375 C 22.359375 -2.734375 24.484375 -3.210938 25.921875 -4.171875 C 27.359375 -5.128906 28.078125 -6.628906 28.078125 -8.671875 C 28.078125 -12.597656 25.234375 -14.5625 19.546875 -14.5625 L 8.453125 -14.5625 L 8.453125 -2.734375 Z M 19.546875 -2.734375" transform="translate(-.182 45.507)"/></g></g></g><g><g><g><path d="M 27.359375 -2.875 L 27.359375 0 L 5.125 0 L 5.125 -31.453125 L 26.6875 -31.453125 L 26.6875 -28.578125 L 8.453125 -28.578125 L 8.453125 -17.390625 L 24.703125 -17.390625 L 24.703125 -14.5625 L 8.453125 -14.5625 L 8.453125 -2.875 Z M 27.359375 -2.875" transform="translate(28.61 45.507)"/></g></g></g></svg>