<svg xmlns="http://www.w3.org/2000/svg" width="60" viewBox="0 0 60 60" height="60" version="1.0"><path fill="#FFF" d="M 58.21875 0 L 0 0 L 0 60 L 60 60 L 60 0 L 58.21875 0 M 58.21875 58.21875 L 1.800781 58.21875 L 1.800781 1.800781 L 58.21875 1.800781 L 58.21875 58.21875"/><g fill="#FFF"><g><g><path d="M 24.921875 -16.21875 C 26.984375 -15.757812 28.578125 -14.863281 29.703125 -13.53125 C 30.828125 -12.207031 31.390625 -10.492188 31.390625 -8.390625 C 31.390625 -5.703125 30.394531 -3.628906 28.40625 -2.171875 C 26.414062 -0.722656 23.472656 0 19.578125 0 L 5.125 0 L 5.125 -31.4375 L 18.6875 -31.4375 C 22.1875 -31.4375 24.898438 -30.734375 26.828125 -29.328125 C 28.765625 -27.921875 29.734375 -25.925781 29.734375 -23.34375 C 29.734375 -21.613281 29.304688 -20.140625 28.453125 -18.921875 C 27.597656 -17.710938 26.421875 -16.8125 24.921875 -16.21875 Z M 8.4375 -28.6875 L 8.4375 -17.28125 L 18.453125 -17.28125 C 21.003906 -17.28125 22.96875 -17.765625 24.34375 -18.734375 C 25.71875 -19.710938 26.40625 -21.128906 26.40625 -22.984375 C 26.40625 -24.847656 25.71875 -26.265625 24.34375 -27.234375 C 22.96875 -28.203125 21.003906 -28.6875 18.453125 -28.6875 Z M 19.53125 -2.734375 C 22.34375 -2.734375 24.46875 -3.210938 25.90625 -4.171875 C 27.34375 -5.128906 28.0625 -6.628906 28.0625 -8.671875 C 28.0625 -12.585938 25.21875 -14.546875 19.53125 -14.546875 L 8.4375 -14.546875 L 8.4375 -2.734375 Z M 19.53125 -2.734375" transform="translate(-.166 46.438)"/></g></g></g><g fill="#FFF"><g><g><path d="M 27.34375 -2.875 L 27.34375 0 L 5.125 0 L 5.125 -31.4375 L 26.671875 -31.4375 L 26.671875 -28.5625 L 8.4375 -28.5625 L 8.4375 -17.375 L 24.703125 -17.375 L 24.703125 -14.546875 L 8.4375 -14.546875 L 8.4375 -2.875 Z M 27.34375 -2.875" transform="translate(28.617 46.438)"/></g></g></g></svg>