<svg xmlns="http://www.w3.org/2000/svg" width="810" viewBox="0 0 810 810" height="810" version="1.0"><defs><clipPath id="a"><path d="M 109.027344 163.914062 L 700.773438 163.914062 L 700.773438 646.164062 L 109.027344 646.164062 Z M 109.027344 163.914062"/></clipPath></defs><path fill="#FFF" d="M-81 -81H891V891H-81z"/><path fill="#FFF" d="M-81 -81H891V891H-81z"/><path fill="#FFF" d="M-81 -81H891V891H-81z"/><path fill="#7E7DB4" d="M 404.96875 21.71875 C 193.304688 21.71875 21.71875 193.304688 21.71875 404.96875 C 21.71875 616.628906 193.304688 788.21875 404.96875 788.21875 C 616.628906 788.21875 788.21875 616.628906 788.21875 404.96875 C 788.21875 193.304688 616.628906 21.71875 404.96875 21.71875"/><g clip-path="url(#a)"><path fill="#FFF" d="M 639.65625 538.746094 L 639.410156 646.164062 L 551.789062 546.976562 L 366.324219 546.976562 C 311.15625 546.976562 266.421875 502.222656 266.421875 447.011719 L 266.421875 330.710938 C 266.421875 275.515625 311.140625 230.761719 366.324219 230.761719 L 600.101562 230.761719 C 655.269531 230.761719 700.003906 275.515625 700.003906 330.710938 L 700.003906 447.011719 C 700.003906 488.160156 675.125 523.410156 639.65625 538.746094 Z M 234.21875 330.414062 L 234.21875 413.707031 L 159.679688 497.042969 L 159.539062 406.734375 C 130.105469 393.902344 109.472656 364.59375 109.472656 330.414062 L 109.472656 247.203125 C 109.472656 201.1875 146.726562 163.914062 192.734375 163.914062 L 390.503906 163.914062 C 417.605469 163.914062 441.457031 177.074219 456.648438 197.128906 L 367.425781 197.128906 C 293.851562 197.128906 234.21875 256.789062 234.21875 330.414062 Z M 234.21875 330.414062" fill-rule="evenodd"/></g></svg>