<?xml version="1.0" standalone="no"?>
<!DOCTYPE svg PUBLIC "-//W3C//DTD SVG 20010904//EN"
 "http://www.w3.org/TR/2001/REC-SVG-20010904/DTD/svg10.dtd">
<svg version="1.0" xmlns="http://www.w3.org/2000/svg"
 width="260.000000pt" height="260.000000pt" viewBox="0 0 260.000000 260.000000"
 preserveAspectRatio="xMidYMid meet">
<metadata>
Created by potrace 1.14, written by Peter Selinger 2001-2017
</metadata>
<g transform="translate(0.000000,260.000000) scale(0.100000,-0.100000)"
fill="#000000" stroke="none">
<path d="M0 1300 l0 -1300 1300 0 1300 0 0 1300 0 1300 -1300 0 -1300 0 0
-1300z m1165 1115 c149 -32 265 -118 300 -226 23 -67 23 -180 1 -246 -20 -61
-81 -133 -142 -169 -24 -14 -44 -27 -44 -29 0 -1 27 -12 59 -24 64 -23 152
-94 177 -142 l15 -29 319 0 320 0 0 -65 0 -65 -305 0 -305 0 0 -43 c0 -109
-57 -214 -148 -273 l-61 -39 0 -72 -1 -73 368 -2 367 -3 3 -62 3 -63 -371 0
-370 0 0 -265 0 -265 430 0 430 0 0 -65 0 -65 -505 0 -505 0 0 443 0 442 -415
-3 -415 -4 0 711 0 711 363 0 c280 0 378 -4 432 -15z"/>
<path d="M522 2053 l3 -258 230 -3 c127 -2 265 2 308 7 181 24 269 106 269
251 0 75 -21 127 -69 171 -79 74 -160 89 -486 89 l-257 0 2 -257z"/>
<path d="M520 1406 l0 -266 309 0 c170 0 323 3 340 6 l31 7 0 198 0 199 80 0
c44 0 80 4 80 9 0 15 -91 70 -145 88 -41 14 -108 17 -372 21 l-323 4 0 -266z"/>
<path d="M1350 1329 c0 -78 2 -90 14 -80 19 16 46 96 46 138 0 30 -3 33 -30
33 l-30 0 0 -91z"/>
</g>
</svg>
