<svg xmlns="http://www.w3.org/2000/svg" xmlns:xlink="http://www.w3.org/1999/xlink" width="500" zoomAndPan="magnify" viewBox="0 0 375 374.999991" height="500" preserveAspectRatio="xMidYMid meet" version="1.0"><defs><clipPath id="id1"><path d="M 112.5 154 L 131 154 L 131 169 L 112.5 169 Z M 112.5 154 " clip-rule="nonzero"/></clipPath><clipPath id="id2"><path d="M 244 154 L 262.5 154 L 262.5 168 L 244 168 Z M 244 154 " clip-rule="nonzero"/></clipPath><clipPath id="id3"><path d="M 26.011719 115 L 65 115 L 65 146 L 26.011719 146 Z M 26.011719 115 " clip-rule="nonzero"/></clipPath></defs><path fill="rgb(0%, 0%, 0%)" d="M 174.046875 135.707031 L 173.375 135.707031 C 171.859375 135.875 170.347656 134.699219 170.179688 133.183594 L 168.496094 119.5625 C 168.328125 118.050781 169.507812 116.535156 171.019531 116.367188 L 171.691406 116.367188 C 173.207031 116.199219 174.71875 117.375 174.886719 118.890625 L 176.570312 132.511719 C 176.738281 134.023438 175.558594 135.539062 174.046875 135.707031 Z M 174.046875 135.707031 " fill-opacity="1" fill-rule="nonzero"/><path fill="rgb(0%, 0%, 0%)" d="M 144.957031 142.097656 L 144.449219 142.433594 C 143.105469 143.105469 141.253906 142.601562 140.582031 141.253906 L 134.191406 129.148438 C 133.519531 127.800781 134.023438 125.953125 135.371094 125.28125 L 135.875 124.945312 C 137.21875 124.269531 139.070312 124.777344 139.742188 126.121094 L 146.132812 138.230469 C 146.804688 139.574219 146.300781 141.253906 144.957031 142.097656 Z M 144.957031 142.097656 " fill-opacity="1" fill-rule="nonzero"/><g clip-path="url(#id1)"><path fill="rgb(0%, 0%, 0%)" d="M 129.988281 166.144531 L 129.652344 166.816406 C 128.8125 168.160156 126.960938 168.496094 125.617188 167.65625 L 114.179688 160.089844 C 112.835938 159.25 112.5 157.398438 113.339844 156.054688 L 113.675781 155.550781 C 114.519531 154.203125 116.367188 153.867188 117.714844 154.707031 L 129.148438 162.277344 C 130.492188 163.117188 130.996094 164.964844 129.988281 166.144531 Z M 129.988281 166.144531 " fill-opacity="1" fill-rule="nonzero"/></g><path fill="rgb(0%, 0%, 0%)" d="M 200.953125 135.707031 L 201.625 135.875 C 203.140625 136.042969 204.652344 135.035156 204.988281 133.519531 L 207.007812 120.066406 C 207.175781 118.554688 206.164062 117.039062 204.652344 116.703125 L 203.8125 116.367188 C 202.296875 116.199219 200.785156 117.207031 200.449219 118.722656 L 198.429688 132.175781 C 198.261719 133.855469 199.269531 135.371094 200.953125 135.707031 Z M 200.953125 135.707031 " fill-opacity="1" fill-rule="nonzero"/><path fill="rgb(0%, 0%, 0%)" d="M 230.214844 142.097656 L 230.71875 142.433594 C 232.0625 143.105469 233.914062 142.601562 234.585938 141.253906 L 240.976562 129.148438 C 241.648438 127.800781 241.144531 125.953125 239.796875 125.28125 L 239.292969 124.945312 C 237.949219 124.269531 236.097656 124.777344 235.425781 126.121094 L 229.035156 138.230469 C 228.195312 139.574219 228.699219 141.253906 230.214844 142.097656 Z M 230.214844 142.097656 " fill-opacity="1" fill-rule="nonzero"/><g clip-path="url(#id2)"><path fill="rgb(0%, 0%, 0%)" d="M 245.011719 166.144531 L 245.347656 166.648438 C 246.1875 167.992188 248.039062 168.328125 249.382812 167.488281 L 260.820312 159.921875 C 262.164062 159.082031 262.5 157.230469 261.660156 155.886719 L 261.324219 155.382812 C 260.480469 154.035156 258.632812 153.699219 257.285156 154.539062 L 245.851562 162.277344 C 244.507812 163.117188 244.171875 164.964844 245.011719 166.144531 Z M 245.011719 166.144531 " fill-opacity="1" fill-rule="nonzero"/></g><path fill="rgb(0%, 0%, 0%)" d="M 246.691406 191.367188 L 224.496094 158.070312 C 223.992188 157.230469 222.980469 156.726562 222.140625 156.726562 L 155.382812 156.726562 C 154.539062 156.726562 153.53125 157.230469 153.027344 157.902344 L 132.175781 189.351562 C 131.503906 189.6875 130.996094 190.359375 130.996094 191.03125 L 130.828125 191.367188 C 130.15625 192.375 130.15625 193.722656 130.996094 194.730469 L 186.660156 257.792969 C 187.164062 258.464844 188.003906 258.800781 188.675781 258.800781 C 189.351562 258.800781 190.191406 258.464844 190.695312 257.792969 L 246.355469 194.730469 C 247.367188 193.890625 247.367188 192.542969 246.691406 191.367188 Z M 222.308594 164.796875 L 238.621094 189.351562 L 213.734375 189.351562 Z M 219.28125 162.277344 L 210.539062 187.332031 L 192.714844 162.277344 Z M 207.34375 189.179688 L 169.507812 189.179688 L 188.339844 162.613281 Z M 184.136719 162.277344 L 166.816406 186.828125 L 158.40625 162.277344 Z M 155.214844 164.796875 L 163.621094 189.351562 L 138.902344 189.351562 Z M 136.714844 192.882812 L 164.964844 192.882812 L 183.128906 245.515625 Z M 188.675781 250.390625 L 168.835938 192.882812 L 208.519531 192.882812 Z M 194.394531 245.515625 L 212.554688 192.882812 L 240.808594 192.882812 Z M 194.394531 245.515625 " fill-opacity="1" fill-rule="nonzero"/><path fill="rgb(49.409485%, 49.01886%, 70.588684%)" d="M 271.433594 292.6875 C 295.265625 278.074219 318.390625 260.679688 332.828125 236.742188 C 356.296875 197.890625 352.878906 147.554688 335.738281 105.527344 C 322.539062 73.179688 298.441406 41.679688 264.152344 34.894531 C 237.328125 29.589844 209.957031 40.460938 186.164062 53.953125 C 114.335938 94.699219 58.125 162.183594 31.039062 240.136719 C 23.859375 260.78125 18.878906 284.417969 28.921875 303.84375 C 40.921875 327.050781 69.675781 335.625 95.667969 338.367188 C 161.699219 345.339844 215.589844 326.929688 271.433594 292.6875 Z M 271.433594 292.6875 " fill-opacity="1" fill-rule="nonzero"/><path fill="rgb(0%, 0%, 0%)" d="M 158.644531 75.953125 L 157.195312 75.953125 C 153.933594 76.3125 150.671875 73.78125 150.308594 70.523438 L 146.683594 41.214844 C 146.324219 37.957031 148.859375 34.699219 152.121094 34.339844 L 153.570312 34.339844 C 156.832031 33.976562 160.09375 36.507812 160.457031 39.765625 L 164.078125 69.074219 C 164.441406 72.332031 161.90625 75.589844 158.644531 75.953125 Z M 158.644531 75.953125 " fill-opacity="1" fill-rule="nonzero"/><path fill="rgb(0%, 0%, 0%)" d="M 95.949219 89.703125 L 94.863281 90.425781 C 91.964844 91.871094 87.976562 90.789062 86.527344 87.890625 L 72.757812 61.839844 C 71.308594 58.945312 72.394531 54.964844 75.292969 53.515625 L 76.382812 52.792969 C 79.28125 51.34375 83.265625 52.429688 84.714844 55.324219 L 98.488281 81.378906 C 99.9375 84.273438 98.851562 87.890625 95.949219 89.703125 Z M 95.949219 89.703125 " fill-opacity="1" fill-rule="nonzero"/><g clip-path="url(#id3)"><path fill="rgb(0%, 0%, 0%)" d="M 63.699219 141.445312 L 62.972656 142.894531 C 61.160156 145.789062 57.175781 146.511719 54.277344 144.703125 L 29.632812 128.417969 C 26.734375 126.609375 26.011719 122.628906 27.820312 119.734375 L 28.546875 118.648438 C 30.359375 115.753906 34.34375 115.03125 37.242188 116.839844 L 61.886719 133.125 C 64.785156 134.933594 65.871094 138.914062 63.699219 141.445312 Z M 63.699219 141.445312 " fill-opacity="1" fill-rule="nonzero"/></g><path fill="rgb(0%, 0%, 0%)" d="M 216.625 75.953125 L 218.074219 76.3125 C 221.335938 76.675781 224.597656 74.503906 225.324219 71.246094 L 229.671875 42.300781 C 230.035156 39.042969 227.859375 35.785156 224.597656 35.0625 L 222.785156 34.339844 C 219.523438 33.976562 216.261719 36.148438 215.539062 39.402344 L 211.191406 68.351562 C 210.828125 71.972656 213 75.226562 216.625 75.953125 Z M 216.625 75.953125 " fill-opacity="1" fill-rule="nonzero"/><path fill="rgb(0%, 0%, 0%)" d="M 279.679688 89.703125 L 280.769531 90.425781 C 283.667969 91.871094 287.652344 90.789062 289.101562 87.890625 L 302.875 61.839844 C 304.324219 58.945312 303.238281 54.964844 300.335938 53.515625 L 299.25 52.792969 C 296.351562 51.34375 292.363281 52.429688 290.914062 55.324219 L 277.144531 81.378906 C 275.332031 84.273438 276.417969 87.890625 279.679688 89.703125 Z M 279.679688 89.703125 " fill-opacity="1" fill-rule="nonzero"/><path fill="rgb(0%, 0%, 0%)" d="M 311.570312 141.445312 L 312.296875 142.53125 C 314.109375 145.425781 318.09375 146.152344 320.992188 144.339844 L 345.636719 128.058594 C 348.535156 126.25 349.261719 122.269531 347.449219 119.375 L 346.722656 118.289062 C 344.910156 115.394531 340.925781 114.667969 338.027344 116.480469 L 313.382812 133.125 C 310.484375 134.933594 309.757812 138.914062 311.570312 141.445312 Z M 311.570312 141.445312 " fill-opacity="1" fill-rule="nonzero"/><path fill="rgb(0%, 0%, 0%)" d="M 315.195312 195.722656 L 267.359375 124.078125 C 266.273438 122.269531 264.097656 121.183594 262.285156 121.183594 L 118.417969 121.183594 C 116.605469 121.183594 114.433594 122.269531 113.34375 123.714844 L 68.410156 191.382812 C 66.960938 192.105469 65.871094 193.554688 65.871094 195 L 65.511719 195.722656 C 64.058594 197.894531 64.058594 200.789062 65.871094 202.960938 L 185.824219 338.65625 C 186.910156 340.105469 188.722656 340.828125 190.171875 340.828125 C 191.621094 340.828125 193.433594 340.105469 194.519531 338.65625 L 314.46875 202.960938 C 316.644531 201.152344 316.644531 198.257812 315.195312 195.722656 Z M 262.648438 138.550781 L 297.800781 191.382812 L 244.167969 191.382812 Z M 256.125 133.125 L 237.28125 187.039062 L 198.867188 133.125 Z M 230.398438 191.019531 L 148.859375 191.019531 L 189.445312 133.847656 Z M 180.386719 133.125 L 143.0625 185.953125 L 124.941406 133.125 Z M 118.054688 138.550781 L 136.175781 191.382812 L 82.90625 191.382812 Z M 78.195312 198.980469 L 139.074219 198.980469 L 178.210938 312.242188 Z M 190.171875 322.734375 L 147.410156 198.980469 L 232.933594 198.980469 Z M 202.492188 312.242188 L 241.628906 198.980469 L 302.511719 198.980469 Z M 202.492188 312.242188 " fill-opacity="1" fill-rule="nonzero"/></svg>