<svg xmlns="http://www.w3.org/2000/svg" xmlns:xlink="http://www.w3.org/1999/xlink" width="500" zoomAndPan="magnify" viewBox="0 0 375 374.999991" height="500" preserveAspectRatio="xMidYMid meet" version="1.0"><defs><clipPath id="id1"><path d="M 121 25.140625 L 363.25 25.140625 L 363.25 341 L 121 341 Z M 121 25.140625 " clip-rule="nonzero"/></clipPath><clipPath id="id2"><path d="M 76 162 L 202 162 L 202 349.890625 L 76 349.890625 Z M 76 162 " clip-rule="nonzero"/></clipPath><clipPath id="id3"><path d="M 182 329 L 202 329 L 202 349.890625 L 182 349.890625 Z M 182 329 " clip-rule="nonzero"/></clipPath><clipPath id="id4"><path d="M 11.5 109 L 31 109 L 31 114 L 11.5 114 Z M 11.5 109 " clip-rule="nonzero"/></clipPath></defs><path fill="rgb(49.409485%, 49.01886%, 70.588684%)" d="M 285.164062 147.320312 C 285.402344 146.722656 285.113281 146.046875 284.515625 145.808594 C 284.183594 145.671875 276.335938 142.539062 267.953125 141.253906 C 248.699219 138.289062 234.675781 146.941406 234.085938 147.304688 C 233.542969 147.652344 233.375 148.367188 233.71875 148.910156 C 233.9375 149.261719 234.316406 149.460938 234.703125 149.460938 C 234.914062 149.460938 235.125 149.402344 235.324219 149.285156 C 235.457031 149.199219 249.242188 140.738281 267.59375 143.5625 C 275.703125 144.808594 283.566406 147.945312 283.644531 147.976562 C 284.242188 148.207031 284.917969 147.917969 285.164062 147.320312 Z M 285.164062 147.320312 " fill-opacity="1" fill-rule="nonzero"/><path fill="rgb(49.409485%, 49.01886%, 70.588684%)" d="M 277.757812 165.039062 C 277.8125 164.953125 277.832031 164.863281 277.867188 164.769531 C 277.902344 164.769531 277.933594 164.769531 277.96875 164.769531 C 279.816406 164.769531 282.0625 164.339844 284.191406 162.804688 C 284.710938 162.433594 284.832031 161.703125 284.460938 161.179688 C 284.085938 160.660156 283.355469 160.539062 282.835938 160.914062 C 281.089844 162.164062 279.234375 162.46875 277.734375 162.433594 C 278.390625 162.117188 279.050781 161.695312 279.675781 161.125 C 280.15625 160.6875 280.183594 159.957031 279.753906 159.476562 C 279.324219 159 278.585938 158.96875 278.109375 159.398438 C 275.363281 161.90625 271.832031 160.496094 271.679688 160.433594 C 271.558594 160.386719 271.441406 160.371094 271.320312 160.363281 C 269.582031 159.679688 267.542969 159.003906 265.269531 158.503906 C 260.410156 157.429688 255.699219 157.386719 251.265625 158.394531 C 249.742188 158.746094 248.285156 159.273438 246.929688 159.976562 C 245.023438 160.960938 243.261719 162.292969 241.695312 163.945312 C 240.40625 165.304688 239.253906 166.875 238.261719 168.605469 C 237.945312 169.164062 238.136719 169.875 238.691406 170.199219 C 238.875 170.304688 239.070312 170.351562 239.269531 170.351562 C 239.667969 170.351562 240.0625 170.140625 240.28125 169.769531 C 241.179688 168.199219 242.222656 166.777344 243.382812 165.558594 C 244.769531 164.101562 246.316406 162.917969 247.988281 162.058594 C 249.171875 161.449219 250.445312 160.984375 251.78125 160.679688 C 255.867188 159.75 260.234375 159.785156 264.757812 160.792969 C 271.398438 162.265625 276.089844 165.339844 276.136719 165.375 C 276.679688 165.722656 277.40625 165.574219 277.757812 165.039062 Z M 277.757812 165.039062 " fill-opacity="1" fill-rule="nonzero"/><path fill="rgb(49.409485%, 49.01886%, 70.588684%)" d="M 247.210938 166.328125 C 247.210938 165.6875 246.6875 165.15625 246.042969 165.15625 C 245.402344 165.15625 244.875 165.679688 244.875 166.328125 C 244.875 172.851562 250.175781 178.160156 256.699219 178.160156 C 263.21875 178.160156 268.519531 172.851562 268.519531 166.328125 C 268.519531 165.304688 268.386719 164.285156 268.132812 163.304688 C 267.972656 162.679688 267.332031 162.3125 266.714844 162.476562 C 266.09375 162.636719 265.722656 163.277344 265.882812 163.898438 C 266.085938 164.6875 266.191406 165.503906 266.191406 166.328125 C 266.191406 171.570312 261.929688 175.828125 256.699219 175.828125 C 251.464844 175.828125 247.210938 171.5625 247.210938 166.328125 Z M 247.210938 166.328125 " fill-opacity="1" fill-rule="nonzero"/><path fill="rgb(49.409485%, 49.01886%, 70.588684%)" d="M 262.324219 166.328125 C 262.324219 163.222656 259.800781 160.695312 256.699219 160.695312 C 253.59375 160.695312 251.078125 163.222656 251.078125 166.328125 C 251.078125 169.429688 253.601562 171.949219 256.699219 171.949219 C 259.792969 171.949219 262.324219 169.429688 262.324219 166.328125 Z M 253.40625 166.328125 C 253.40625 164.511719 254.882812 163.03125 256.699219 163.03125 C 258.511719 163.03125 259.988281 164.511719 259.988281 166.328125 C 259.988281 168.140625 258.511719 169.621094 256.699219 169.621094 C 254.890625 169.621094 253.40625 168.140625 253.40625 166.328125 Z M 253.40625 166.328125 " fill-opacity="1" fill-rule="nonzero"/><path fill="rgb(49.409485%, 49.01886%, 70.588684%)" d="M 201.460938 147.304688 C 200.871094 146.941406 186.859375 138.296875 167.597656 141.253906 C 159.210938 142.539062 151.363281 145.671875 151.03125 145.808594 C 150.433594 146.046875 150.144531 146.722656 150.382812 147.320312 C 150.625 147.917969 151.304688 148.207031 151.898438 147.96875 C 151.972656 147.941406 159.824219 144.800781 167.949219 143.554688 C 186.3125 140.730469 200.085938 149.191406 200.21875 149.277344 C 200.40625 149.398438 200.625 149.453125 200.835938 149.453125 C 201.222656 149.453125 201.601562 149.261719 201.820312 148.902344 C 202.164062 148.367188 202.003906 147.652344 201.460938 147.304688 Z M 201.460938 147.304688 " fill-opacity="1" fill-rule="nonzero"/><path fill="rgb(49.409485%, 49.01886%, 70.588684%)" d="M 195.257812 169.761719 C 195.476562 170.132812 195.863281 170.34375 196.273438 170.34375 C 196.46875 170.34375 196.664062 170.296875 196.847656 170.191406 C 197.402344 169.875 197.601562 169.15625 197.277344 168.601562 C 195.738281 165.910156 192.988281 162.230469 188.621094 159.976562 C 187.261719 159.273438 185.804688 158.746094 184.28125 158.394531 C 179.855469 157.386719 175.144531 157.421875 170.28125 158.503906 C 168.011719 159.011719 165.972656 159.679688 164.234375 160.363281 C 164.113281 160.371094 163.996094 160.386719 163.875 160.433594 C 163.726562 160.496094 160.195312 161.914062 157.445312 159.398438 C 156.96875 158.964844 156.238281 159 155.800781 159.476562 C 155.363281 159.957031 155.398438 160.6875 155.878906 161.125 C 156.511719 161.703125 157.164062 162.125 157.820312 162.433594 C 156.320312 162.46875 154.464844 162.164062 152.71875 160.914062 C 152.199219 160.53125 151.46875 160.652344 151.09375 161.179688 C 150.714844 161.703125 150.835938 162.433594 151.363281 162.804688 C 153.488281 164.335938 155.730469 164.769531 157.585938 164.769531 C 157.621094 164.769531 157.65625 164.769531 157.691406 164.761719 C 157.722656 164.855469 157.75 164.945312 157.804688 165.03125 C 158.164062 165.566406 158.882812 165.714844 159.421875 165.355469 C 159.472656 165.328125 164.15625 162.242188 170.804688 160.773438 C 175.324219 159.773438 179.695312 159.730469 183.78125 160.660156 C 185.117188 160.960938 186.390625 161.433594 187.570312 162.039062 C 191.417969 164.046875 193.878906 167.347656 195.257812 169.761719 Z M 195.257812 169.761719 " fill-opacity="1" fill-rule="nonzero"/><path fill="rgb(49.409485%, 49.01886%, 70.588684%)" d="M 168.828125 162.476562 C 168.207031 162.3125 167.566406 162.6875 167.40625 163.304688 C 167.144531 164.285156 167.019531 165.304688 167.019531 166.324219 C 167.019531 172.851562 172.324219 178.160156 178.84375 178.160156 C 185.363281 178.160156 190.667969 172.851562 190.667969 166.324219 C 190.667969 165.6875 190.144531 165.15625 189.5 165.15625 C 188.851562 165.15625 188.332031 165.679688 188.332031 166.324219 C 188.332031 171.570312 184.074219 175.828125 178.835938 175.828125 C 173.59375 175.828125 169.339844 171.5625 169.339844 166.324219 C 169.339844 165.503906 169.445312 164.6875 169.648438 163.898438 C 169.824219 163.277344 169.453125 162.636719 168.828125 162.476562 Z M 168.828125 162.476562 " fill-opacity="1" fill-rule="nonzero"/><path fill="rgb(49.409485%, 49.01886%, 70.588684%)" d="M 184.46875 166.328125 C 184.46875 163.222656 181.945312 160.695312 178.84375 160.695312 C 175.742188 160.695312 173.222656 163.222656 173.222656 166.328125 C 173.222656 169.429688 175.746094 171.949219 178.84375 171.949219 C 181.9375 171.949219 184.46875 169.429688 184.46875 166.328125 Z M 175.550781 166.328125 C 175.550781 164.511719 177.027344 163.03125 178.84375 163.03125 C 180.65625 163.03125 182.132812 164.511719 182.132812 166.328125 C 182.132812 168.140625 180.65625 169.621094 178.84375 169.621094 C 177.027344 169.621094 175.550781 168.140625 175.550781 166.328125 Z M 175.550781 166.328125 " fill-opacity="1" fill-rule="nonzero"/><path fill="rgb(49.409485%, 49.01886%, 70.588684%)" d="M 191.117188 246.160156 C 191.09375 246.199219 191.074219 246.242188 191.066406 246.277344 C 191.058594 246.335938 191.066406 246.390625 191.066406 246.445312 C 191.066406 246.480469 191.066406 246.511719 191.066406 246.539062 C 191.082031 246.671875 191.101562 246.804688 191.160156 246.933594 C 191.160156 246.941406 191.160156 246.945312 191.164062 246.953125 C 193.488281 252.007812 205 255.816406 217.933594 255.816406 C 231.375 255.816406 242.460938 251.140625 244.386719 246.777344 C 244.394531 246.769531 244.386719 246.765625 244.394531 246.75 C 244.445312 246.628906 244.472656 246.496094 244.480469 246.363281 C 244.480469 246.328125 244.480469 246.292969 244.480469 246.257812 C 244.480469 246.199219 244.488281 246.136719 244.472656 246.082031 C 244.464844 246.054688 244.445312 246.011719 244.429688 245.976562 C 244.339844 245.660156 244.121094 245.378906 243.796875 245.238281 C 243.789062 245.238281 243.785156 245.238281 243.777344 245.230469 C 240.484375 242.203125 226.644531 233.566406 226.4375 233.46875 C 223.265625 231.980469 219.945312 233.628906 218.167969 234.507812 C 217.863281 234.65625 217.546875 234.8125 217.359375 234.890625 C 217.015625 234.855469 216.113281 234.480469 215.445312 234.207031 C 213.265625 233.304688 210.542969 232.1875 208.515625 233.296875 C 208.371094 233.382812 194.859375 242.328125 191.722656 245.417969 C 191.40625 245.574219 191.199219 245.847656 191.117188 246.160156 Z M 195.140625 248.082031 C 196.054688 247.734375 197.085938 247.179688 198.285156 246.53125 C 201.363281 244.855469 205.585938 242.570312 210.269531 242.878906 C 211.195312 242.941406 212.210938 243.273438 213.277344 243.625 C 214.679688 244.082031 216.128906 244.5625 217.695312 244.5625 C 219.136719 244.5625 220.460938 244.082031 221.742188 243.617188 C 222.710938 243.265625 223.625 242.933594 224.457031 242.878906 C 229.546875 242.519531 234.097656 244.785156 237.417969 246.441406 C 238.605469 247.03125 239.597656 247.523438 240.472656 247.839844 C 236.8125 250.628906 228.367188 253.5 217.941406 253.5 C 207.371094 253.488281 198.894531 250.953125 195.140625 248.082031 Z M 242.449219 245.566406 C 242.414062 245.609375 242.382812 245.652344 242.355469 245.695312 C 242.398438 245.625 242.425781 245.554688 242.488281 245.488281 C 242.46875 245.511719 242.460938 245.546875 242.449219 245.566406 Z M 209.636719 235.339844 C 209.859375 235.210938 210.148438 235.164062 210.472656 235.164062 C 211.65625 235.164062 213.34375 235.859375 214.550781 236.359375 C 216.09375 237 217.121094 237.414062 217.984375 237.140625 C 218.320312 237.035156 218.710938 236.84375 219.195312 236.597656 C 220.726562 235.839844 223.289062 234.570312 225.453125 235.578125 C 227.382812 236.480469 235.289062 241.828125 239.621094 244.914062 C 239.21875 244.722656 238.824219 244.519531 238.460938 244.34375 C 234.898438 242.570312 230.039062 240.140625 224.292969 240.546875 C 223.148438 240.632812 222.035156 241.035156 220.960938 241.421875 C 219.820312 241.835938 218.738281 242.222656 217.703125 242.222656 C 216.507812 242.222656 215.289062 241.828125 214.011719 241.40625 C 212.851562 241.027344 211.648438 240.632812 210.429688 240.554688 C 205.070312 240.203125 200.511719 242.679688 197.179688 244.492188 C 196.546875 244.835938 195.757812 245.257812 195.0625 245.59375 C 199 242.570312 207.738281 236.386719 209.636719 235.339844 Z M 209.636719 235.339844 " fill-opacity="1" fill-rule="nonzero"/><path fill="rgb(49.409485%, 49.01886%, 70.588684%)" d="M 207.855469 215.179688 C 207.878906 215.15625 210.058594 213.144531 211.582031 213.945312 C 212.21875 214.277344 212.75 214.617188 213.238281 214.917969 C 214.546875 215.742188 215.78125 216.515625 217.773438 216.515625 C 219.765625 216.515625 221.003906 215.742188 222.308594 214.917969 C 222.800781 214.617188 223.332031 214.277344 223.964844 213.945312 C 225.480469 213.144531 227.664062 215.15625 227.691406 215.179688 C 228.15625 215.621094 228.894531 215.601562 229.335938 215.144531 C 229.78125 214.679688 229.765625 213.941406 229.300781 213.496094 C 229.160156 213.363281 225.910156 210.292969 222.878906 211.882812 C 222.175781 212.257812 221.59375 212.625 221.074219 212.949219 C 219.835938 213.722656 219.089844 214.1875 217.773438 214.1875 C 216.457031 214.1875 215.707031 213.722656 214.476562 212.949219 C 213.953125 212.625 213.371094 212.257812 212.667969 211.882812 C 209.644531 210.292969 206.386719 213.363281 206.246094 213.496094 C 205.78125 213.941406 205.765625 214.671875 206.210938 215.136719 C 206.652344 215.609375 207.386719 215.621094 207.855469 215.179688 Z M 207.855469 215.179688 " fill-opacity="1" fill-rule="nonzero"/><path fill="rgb(49.409485%, 49.01886%, 70.588684%)" d="M 161.398438 298.011719 C 160.808594 297.757812 160.125 298.03125 159.871094 298.628906 C 156.027344 307.6875 151.265625 314.488281 145.304688 319.421875 C 126.070312 335.351562 94.585938 337.175781 73.746094 338.378906 C 73.105469 338.414062 72.613281 338.972656 72.648438 339.613281 C 72.683594 340.230469 73.199219 340.710938 73.808594 340.710938 C 73.832031 340.710938 73.851562 340.710938 73.878906 340.710938 C 95.023438 339.484375 126.960938 337.632812 146.789062 321.21875 C 153.035156 316.042969 158.015625 308.957031 162.011719 299.539062 C 162.265625 298.945312 161.988281 298.261719 161.398438 298.011719 Z M 161.398438 298.011719 " fill-opacity="1" fill-rule="nonzero"/><g clip-path="url(#id1)"><path fill="rgb(49.409485%, 49.01886%, 70.588684%)" d="M 362.074219 338.378906 C 341.242188 337.167969 309.75 335.351562 290.515625 319.421875 C 275.976562 307.386719 270.90625 286.175781 266.980469 265.445312 C 274.871094 257.246094 281.40625 248.582031 285.078125 241.265625 C 290.316406 230.835938 293.355469 219.558594 295.339844 207.984375 C 300.945312 206.457031 302.949219 198.101562 305.242188 188.480469 C 306.152344 184.65625 307.09375 180.707031 308.316406 176.878906 C 308.726562 175.609375 309.21875 174.195312 309.75 172.695312 C 312.21875 165.679688 315.300781 156.941406 313.734375 150.417969 C 312.824219 146.652344 310.414062 145.285156 308.449219 145.265625 C 307.683594 145.265625 306.953125 145.453125 306.261719 145.785156 C 308.484375 137.175781 310.371094 127.386719 310.371094 118.078125 C 310.371094 76.035156 282.242188 40.464844 243.832031 29.171875 C 243.796875 29.160156 243.769531 29.125 243.734375 29.109375 C 243.648438 29.074219 243.558594 29.082031 243.472656 29.066406 C 235.308594 26.703125 226.691406 25.40625 217.773438 25.40625 C 166.714844 25.40625 125.175781 66.980469 125.175781 118.078125 C 125.175781 127.378906 127.0625 137.164062 129.285156 145.777344 C 128.609375 145.453125 127.890625 145.265625 127.152344 145.265625 C 127.136719 145.265625 127.117188 145.265625 127.101562 145.265625 C 125.148438 145.285156 122.730469 146.652344 121.820312 150.417969 C 120.253906 156.941406 123.328125 165.679688 125.800781 172.695312 C 126.328125 174.203125 126.828125 175.617188 127.238281 176.886719 C 128.460938 180.707031 129.402344 184.664062 130.3125 188.480469 C 132.6875 198.472656 134.757812 207.105469 140.882812 208.125 C 140.945312 208.148438 141.015625 208.160156 141.078125 208.167969 C 141.09375 208.167969 141.113281 208.175781 141.128906 208.183594 C 141.175781 208.1875 141.226562 208.1875 141.277344 208.1875 C 141.296875 208.1875 141.320312 208.183594 141.339844 208.175781 C 141.367188 208.175781 141.394531 208.183594 141.425781 208.175781 C 141.460938 208.167969 141.480469 208.148438 141.515625 208.140625 C 141.636719 208.113281 141.746094 208.070312 141.847656 208.011719 C 141.851562 208.011719 141.851562 208.003906 141.859375 208.003906 C 142.15625 207.828125 142.378906 207.542969 142.429688 207.167969 C 142.457031 206.964844 142.414062 206.773438 142.34375 206.597656 C 140.574219 195.953125 139.6875 185.066406 138.820312 174.542969 C 138.644531 172.386719 138.46875 170.246094 138.292969 168.234375 L 138.503906 145.390625 C 138.503906 101.523438 171.097656 70.878906 217.765625 70.878906 C 264.433594 70.878906 297.027344 101.523438 297.027344 145.398438 L 297.246094 168.121094 C 297.0625 170.246094 296.886719 172.394531 296.710938 174.554688 C 295.839844 185.207031 294.945312 196.023438 293.203125 206.582031 C 293.132812 206.753906 293.097656 206.9375 293.109375 207.132812 C 291.160156 218.675781 288.164062 229.898438 282.988281 240.210938 C 272.648438 260.808594 239.316406 292.371094 217.773438 292.371094 C 196.230469 292.371094 162.898438 260.808594 152.558594 240.210938 C 149.675781 234.464844 147.347656 228.222656 145.441406 221.121094 C 145.269531 220.5 144.636719 220.128906 144.011719 220.296875 C 143.394531 220.464844 143.019531 221.097656 143.1875 221.726562 C 145.136719 228.984375 147.515625 235.375 150.476562 241.257812 C 154.183594 248.644531 160.800781 257.398438 168.796875 265.671875 C 167.652344 271.730469 166.265625 278.707031 164.359375 285.550781 C 164.183594 286.167969 164.550781 286.808594 165.167969 286.988281 C 165.273438 287.015625 165.378906 287.027344 165.484375 287.027344 C 165.992188 287.027344 166.464844 286.691406 166.605469 286.175781 C 168.371094 279.835938 169.683594 273.40625 170.78125 267.691406 C 185.363281 282.214844 203.890625 294.714844 217.773438 294.714844 C 231.726562 294.714844 250.382812 282.085938 264.996094 267.464844 C 268.964844 288.105469 274.273438 309 289.03125 321.21875 C 308.859375 337.632812 340.804688 339.484375 361.941406 340.710938 C 361.960938 340.710938 361.984375 340.710938 362.011719 340.710938 C 362.625 340.710938 363.136719 340.230469 363.171875 339.613281 C 363.207031 338.972656 362.714844 338.414062 362.074219 338.378906 Z M 139.785156 205.308594 C 136.21875 203.238281 134.511719 196.074219 132.570312 187.945312 C 131.648438 184.078125 130.699219 180.089844 129.445312 176.175781 C 129.03125 174.886719 128.53125 173.449219 127.988281 171.921875 C 125.621094 165.191406 122.671875 156.816406 124.078125 150.964844 C 124.578125 148.875 125.71875 147.617188 127.117188 147.601562 C 127.125 147.601562 127.132812 147.601562 127.136719 147.601562 C 128.476562 147.601562 130.121094 148.792969 130.824219 151.453125 C 131.929688 155.300781 133.03125 158.792969 133.960938 161.722656 C 134.882812 164.628906 135.613281 166.929688 135.972656 168.425781 C 136.148438 170.515625 136.324219 172.621094 136.492188 174.738281 C 137.324219 184.761719 138.179688 195.109375 139.785156 205.308594 Z M 136.183594 145.390625 L 136.042969 160.5625 C 132.78125 150.269531 127.496094 133.394531 127.496094 118.085938 C 127.496094 68.269531 167.988281 27.742188 217.765625 27.742188 C 226.082031 27.742188 234.121094 28.898438 241.765625 31.011719 C 232.472656 55.394531 219.390625 66.875 217.34375 68.566406 C 195.132812 68.65625 174.820312 75.964844 160.121094 89.167969 C 144.460938 103.246094 136.183594 122.691406 136.183594 145.390625 Z M 275.421875 89.175781 C 261.296875 76.492188 242.003906 69.253906 220.820312 68.621094 C 225.46875 64.269531 236.039062 52.71875 244.023438 31.652344 C 281.035156 42.933594 308.042969 77.40625 308.042969 118.085938 C 308.042969 133.394531 302.765625 150.253906 299.503906 160.546875 L 299.363281 145.398438 C 299.363281 122.691406 291.078125 103.246094 275.421875 89.175781 Z M 299.039062 174.753906 C 299.207031 172.667969 299.378906 170.597656 299.558594 168.445312 C 299.917969 166.953125 300.648438 164.644531 301.578125 161.722656 C 302.507812 158.792969 303.613281 155.296875 304.722656 151.445312 C 305.425781 148.785156 307.070312 147.59375 308.410156 147.59375 C 308.414062 147.59375 308.421875 147.59375 308.429688 147.59375 C 309.828125 147.609375 310.96875 148.867188 311.46875 150.960938 C 312.875 156.816406 309.925781 165.191406 307.558594 171.921875 C 307.015625 173.449219 306.515625 174.886719 306.101562 176.175781 C 304.847656 180.082031 303.898438 184.078125 302.976562 187.945312 C 301.042969 196.058594 299.34375 203.210938 295.78125 205.296875 C 297.367188 195.195312 298.210938 184.894531 299.039062 174.753906 Z M 299.039062 174.753906 " fill-opacity="1" fill-rule="nonzero"/></g><path fill="rgb(100%, 79.998779%, 50.19989%)" d="M 178.125 251.105469 C 177.683594 251.105469 177.230469 250.9375 176.894531 250.601562 L 83.285156 157.292969 C 82.601562 156.613281 82.601562 155.507812 83.277344 154.824219 C 83.960938 154.140625 85.0625 154.140625 85.746094 154.816406 L 179.355469 248.121094 C 180.039062 248.804688 180.039062 249.910156 179.363281 250.59375 C 179.019531 250.9375 178.574219 251.105469 178.125 251.105469 Z M 178.125 251.105469 " fill-opacity="1" fill-rule="nonzero"/><path fill="rgb(100%, 79.998779%, 50.19989%)" d="M 178.125 251.105469 C 177.984375 251.105469 177.84375 251.09375 177.703125 251.058594 L 161.503906 246.996094 C 160.570312 246.765625 160 245.8125 160.230469 244.878906 C 160.464844 243.941406 161.414062 243.371094 162.347656 243.601562 L 175.613281 246.933594 L 171.859375 233.769531 C 171.589844 232.839844 172.132812 231.875 173.0625 231.609375 C 173.980469 231.339844 174.953125 231.875 175.21875 232.8125 L 179.804688 248.882812 C 179.976562 249.480469 179.8125 250.128906 179.382812 250.578125 C 179.046875 250.925781 178.597656 251.105469 178.125 251.105469 Z M 178.125 251.105469 " fill-opacity="1" fill-rule="nonzero"/><g clip-path="url(#id2)"><path fill="rgb(100%, 79.998779%, 50.19989%)" d="M 199.691406 349.613281 C 199.121094 349.613281 198.570312 349.339844 198.234375 348.832031 L 76.90625 165.453125 C 76.371094 164.652344 76.59375 163.566406 77.398438 163.03125 C 78.199219 162.496094 79.28125 162.714844 79.816406 163.523438 L 201.144531 346.90625 C 201.679688 347.707031 201.457031 348.792969 200.652344 349.328125 C 200.359375 349.523438 200.019531 349.613281 199.691406 349.613281 Z M 199.691406 349.613281 " fill-opacity="1" fill-rule="nonzero"/></g><g clip-path="url(#id3)"><path fill="rgb(100%, 79.998779%, 50.19989%)" d="M 199.691406 349.613281 C 199.457031 349.613281 199.21875 349.566406 198.992188 349.46875 L 183.78125 342.871094 C 182.894531 342.492188 182.484375 341.457031 182.871094 340.570312 C 183.253906 339.683594 184.28125 339.273438 185.171875 339.660156 L 197.988281 345.214844 L 198.214844 331.1875 C 198.226562 330.230469 199.007812 329.46875 199.957031 329.46875 C 199.964844 329.46875 199.980469 329.46875 199.984375 329.46875 C 200.949219 329.484375 201.714844 330.277344 201.703125 331.242188 L 201.433594 347.890625 C 201.425781 348.472656 201.125 349.015625 200.632812 349.332031 C 200.351562 349.523438 200.019531 349.613281 199.691406 349.613281 Z M 199.691406 349.613281 " fill-opacity="1" fill-rule="nonzero"/></g><path fill="rgb(100%, 79.998779%, 50.19989%)" d="M 173.609375 246.023438 C 173.3125 246.023438 173.011719 245.914062 172.785156 245.6875 L 162.890625 235.816406 C 162.433594 235.359375 162.433594 234.628906 162.890625 234.171875 C 163.347656 233.71875 164.078125 233.714844 164.535156 234.171875 L 174.433594 244.039062 C 174.890625 244.496094 174.890625 245.230469 174.433594 245.6875 C 174.207031 245.914062 173.910156 246.023438 173.609375 246.023438 Z M 153.808594 226.292969 C 153.515625 226.292969 153.210938 226.179688 152.988281 225.957031 L 143.089844 216.085938 C 142.632812 215.636719 142.632812 214.898438 143.089844 214.441406 C 143.539062 213.988281 144.28125 213.980469 144.738281 214.441406 L 154.632812 224.308594 C 155.089844 224.757812 155.089844 225.5 154.632812 225.957031 C 154.40625 226.175781 154.113281 226.292969 153.808594 226.292969 Z M 134.011719 206.554688 C 133.714844 206.554688 133.414062 206.441406 133.1875 206.21875 L 123.292969 196.347656 C 122.835938 195.898438 122.835938 195.160156 123.292969 194.703125 C 123.742188 194.242188 124.480469 194.242188 124.9375 194.703125 L 134.832031 204.570312 C 135.289062 205.019531 135.289062 205.761719 134.832031 206.21875 C 134.609375 206.441406 134.3125 206.554688 134.011719 206.554688 Z M 114.21875 186.824219 C 113.921875 186.824219 113.621094 186.710938 113.394531 186.488281 L 103.5 176.617188 C 103.042969 176.167969 103.042969 175.429688 103.5 174.96875 C 103.949219 174.511719 104.6875 174.511719 105.144531 174.96875 L 115.039062 184.839844 C 115.5 185.289062 115.5 186.027344 115.039062 186.488281 C 114.816406 186.710938 114.511719 186.824219 114.21875 186.824219 Z M 94.417969 167.085938 C 94.121094 167.085938 93.820312 166.972656 93.59375 166.75 L 83.699219 156.878906 C 83.242188 156.429688 83.242188 155.691406 83.699219 155.230469 C 84.148438 154.773438 84.886719 154.773438 85.34375 155.230469 L 95.242188 165.101562 C 95.699219 165.550781 95.699219 166.289062 95.242188 166.75 C 95.015625 166.972656 94.714844 167.085938 94.417969 167.085938 Z M 94.417969 167.085938 " fill-opacity="1" fill-rule="nonzero"/><path fill="rgb(100%, 79.998779%, 50.19989%)" d="M 178.125 250.53125 C 178.035156 250.53125 177.933594 250.515625 177.84375 250.496094 L 161.644531 246.433594 C 161.019531 246.277344 160.640625 245.644531 160.800781 245.019531 C 160.957031 244.390625 161.589844 244.011719 162.214844 244.171875 L 176.457031 247.742188 L 172.429688 233.609375 C 172.253906 232.988281 172.609375 232.347656 173.230469 232.164062 C 173.839844 231.996094 174.488281 232.347656 174.671875 232.96875 L 179.257812 249.039062 C 179.371094 249.4375 179.265625 249.867188 178.976562 250.171875 C 178.738281 250.402344 178.433594 250.53125 178.125 250.53125 Z M 178.125 250.53125 " fill-opacity="1" fill-rule="nonzero"/><path fill="rgb(100%, 79.998779%, 50.19989%)" d="M 76.398438 111.589844 C 76.398438 112.195312 76.367188 112.804688 76.308594 113.410156 C 76.25 114.015625 76.160156 114.617188 76.042969 115.214844 C 75.921875 115.808594 75.777344 116.398438 75.597656 116.980469 C 75.421875 117.5625 75.21875 118.136719 74.984375 118.699219 C 74.753906 119.261719 74.492188 119.808594 74.207031 120.347656 C 73.921875 120.882812 73.609375 121.402344 73.269531 121.910156 C 72.933594 122.414062 72.570312 122.902344 72.183594 123.375 C 71.800781 123.84375 71.390625 124.292969 70.960938 124.722656 C 70.53125 125.15625 70.082031 125.5625 69.613281 125.949219 C 69.140625 126.335938 68.65625 126.695312 68.148438 127.035156 C 67.644531 127.371094 67.121094 127.683594 66.585938 127.972656 C 66.050781 128.257812 65.5 128.519531 64.941406 128.75 C 64.378906 128.984375 63.804688 129.1875 63.226562 129.367188 C 62.644531 129.542969 62.054688 129.691406 61.457031 129.808594 C 60.863281 129.925781 60.261719 130.015625 59.65625 130.074219 C 59.050781 130.136719 58.445312 130.164062 57.835938 130.164062 C 57.230469 130.164062 56.621094 130.136719 56.015625 130.074219 C 55.414062 130.015625 54.8125 129.925781 54.214844 129.808594 C 53.621094 129.691406 53.03125 129.542969 52.449219 129.367188 C 51.867188 129.1875 51.296875 128.984375 50.734375 128.75 C 50.171875 128.519531 49.621094 128.257812 49.085938 127.972656 C 48.550781 127.683594 48.03125 127.371094 47.523438 127.035156 C 47.019531 126.695312 46.53125 126.335938 46.0625 125.949219 C 45.589844 125.5625 45.140625 125.15625 44.710938 124.722656 C 44.28125 124.292969 43.875 123.84375 43.488281 123.375 C 43.101562 122.902344 42.742188 122.414062 42.402344 121.910156 C 42.066406 121.402344 41.753906 120.882812 41.464844 120.347656 C 41.179688 119.808594 40.921875 119.261719 40.6875 118.699219 C 40.457031 118.136719 40.25 117.5625 40.074219 116.980469 C 39.898438 116.398438 39.75 115.808594 39.632812 115.214844 C 39.511719 114.617188 39.425781 114.015625 39.363281 113.410156 C 39.304688 112.804688 39.273438 112.195312 39.273438 111.589844 C 39.273438 110.980469 39.304688 110.375 39.363281 109.769531 C 39.425781 109.164062 39.511719 108.5625 39.632812 107.964844 C 39.75 107.367188 39.898438 106.777344 40.074219 106.195312 C 40.25 105.613281 40.457031 105.042969 40.6875 104.480469 C 40.921875 103.917969 41.179688 103.367188 41.464844 102.832031 C 41.753906 102.296875 42.066406 101.773438 42.402344 101.269531 C 42.742188 100.761719 43.101562 100.273438 43.488281 99.804688 C 43.875 99.332031 44.28125 98.882812 44.710938 98.453125 C 45.140625 98.023438 45.589844 97.613281 46.0625 97.230469 C 46.53125 96.84375 47.019531 96.480469 47.523438 96.144531 C 48.03125 95.804688 48.550781 95.492188 49.085938 95.207031 C 49.621094 94.917969 50.171875 94.660156 50.734375 94.425781 C 51.296875 94.191406 51.867188 93.988281 52.449219 93.8125 C 53.03125 93.636719 53.621094 93.488281 54.214844 93.367188 C 54.8125 93.25 55.414062 93.160156 56.015625 93.101562 C 56.621094 93.042969 57.230469 93.011719 57.835938 93.011719 C 58.445312 93.011719 59.050781 93.042969 59.65625 93.101562 C 60.261719 93.160156 60.863281 93.25 61.457031 93.367188 C 62.054688 93.488281 62.644531 93.636719 63.226562 93.8125 C 63.804688 93.988281 64.378906 94.191406 64.941406 94.425781 C 65.5 94.660156 66.050781 94.917969 66.585938 95.207031 C 67.121094 95.492188 67.644531 95.804688 68.148438 96.144531 C 68.65625 96.480469 69.140625 96.84375 69.613281 97.230469 C 70.082031 97.613281 70.53125 98.023438 70.960938 98.453125 C 71.390625 98.882812 71.800781 99.332031 72.183594 99.804688 C 72.570312 100.273438 72.933594 100.761719 73.269531 101.269531 C 73.609375 101.773438 73.921875 102.296875 74.207031 102.832031 C 74.492188 103.367188 74.753906 103.917969 74.984375 104.480469 C 75.21875 105.042969 75.421875 105.613281 75.597656 106.195312 C 75.777344 106.777344 75.921875 107.367188 76.042969 107.964844 C 76.160156 108.5625 76.25 109.164062 76.308594 109.769531 C 76.367188 110.375 76.398438 110.980469 76.398438 111.589844 Z M 76.398438 111.589844 " fill-opacity="1" fill-rule="nonzero"/><path fill="rgb(100%, 79.998779%, 50.19989%)" d="M 57.835938 84.402344 C 56.550781 84.402344 55.507812 83.359375 55.507812 82.074219 L 55.507812 67.535156 C 55.507812 66.25 56.550781 65.207031 57.835938 65.207031 C 59.125 65.207031 60.164062 66.25 60.164062 67.535156 L 60.164062 82.074219 C 60.164062 83.359375 59.117188 84.402344 57.835938 84.402344 Z M 57.835938 84.402344 " fill-opacity="1" fill-rule="nonzero"/><path fill="rgb(100%, 79.998779%, 50.19989%)" d="M 57.835938 157.976562 C 56.550781 157.976562 55.507812 156.9375 55.507812 155.648438 L 55.507812 141.113281 C 55.507812 139.824219 56.550781 138.78125 57.835938 138.78125 C 59.125 138.78125 60.164062 139.824219 60.164062 141.113281 L 60.164062 155.648438 C 60.164062 156.929688 59.117188 157.976562 57.835938 157.976562 Z M 57.835938 157.976562 " fill-opacity="1" fill-rule="nonzero"/><path fill="rgb(100%, 79.998779%, 50.19989%)" d="M 101.851562 113.925781 L 87.328125 113.925781 C 86.042969 113.925781 85 112.882812 85 111.597656 C 85 110.308594 86.042969 109.265625 87.328125 109.265625 L 101.851562 109.265625 C 103.140625 109.265625 104.179688 110.308594 104.179688 111.597656 C 104.179688 112.882812 103.140625 113.925781 101.851562 113.925781 Z M 101.851562 113.925781 " fill-opacity="1" fill-rule="nonzero"/><g clip-path="url(#id4)"><path fill="rgb(100%, 79.998779%, 50.19989%)" d="M 28.335938 113.925781 L 13.820312 113.925781 C 12.535156 113.925781 11.492188 112.882812 11.492188 111.597656 C 11.492188 110.308594 12.535156 109.265625 13.820312 109.265625 L 28.34375 109.265625 C 29.632812 109.265625 30.671875 110.308594 30.671875 111.597656 C 30.671875 112.882812 29.625 113.925781 28.335938 113.925781 Z M 28.335938 113.925781 " fill-opacity="1" fill-rule="nonzero"/></g><path fill="rgb(100%, 79.998779%, 50.19989%)" d="M 78.691406 93.046875 C 78.09375 93.046875 77.503906 92.820312 77.046875 92.363281 C 76.136719 91.457031 76.136719 89.976562 77.046875 89.070312 L 87.316406 78.792969 C 88.222656 77.882812 89.699219 77.882812 90.605469 78.792969 C 91.511719 79.699219 91.511719 81.179688 90.605469 82.085938 L 80.335938 92.363281 C 79.878906 92.820312 79.28125 93.046875 78.691406 93.046875 Z M 78.691406 93.046875 " fill-opacity="1" fill-rule="nonzero"/><path fill="rgb(100%, 79.998779%, 50.19989%)" d="M 26.707031 145.074219 C 26.109375 145.074219 25.515625 144.847656 25.058594 144.390625 C 24.152344 143.484375 24.152344 142.003906 25.058594 141.097656 L 35.328125 130.820312 C 36.238281 129.910156 37.714844 129.910156 38.621094 130.820312 C 39.527344 131.726562 39.527344 133.207031 38.621094 134.113281 L 28.351562 144.390625 C 27.902344 144.84375 27.304688 145.074219 26.707031 145.074219 Z M 26.707031 145.074219 " fill-opacity="1" fill-rule="nonzero"/><path fill="rgb(100%, 79.998779%, 50.19989%)" d="M 88.960938 145.074219 C 88.363281 145.074219 87.773438 144.847656 87.316406 144.390625 L 77.046875 134.113281 C 76.136719 133.207031 76.136719 131.726562 77.046875 130.820312 C 77.953125 129.910156 79.429688 129.910156 80.335938 130.820312 L 90.605469 141.097656 C 91.511719 142.003906 91.511719 143.484375 90.605469 144.390625 C 90.148438 144.84375 89.550781 145.074219 88.960938 145.074219 Z M 88.960938 145.074219 " fill-opacity="1" fill-rule="nonzero"/><path fill="rgb(100%, 79.998779%, 50.19989%)" d="M 36.980469 93.046875 C 36.382812 93.046875 35.792969 92.820312 35.335938 92.363281 L 25.066406 82.085938 C 24.160156 81.179688 24.160156 79.699219 25.066406 78.792969 C 25.972656 77.882812 27.453125 77.882812 28.359375 78.792969 L 38.628906 89.070312 C 39.535156 89.976562 39.535156 91.457031 38.628906 92.363281 C 38.171875 92.820312 37.574219 93.046875 36.980469 93.046875 Z M 36.980469 93.046875 " fill-opacity="1" fill-rule="nonzero"/></svg>